<?xml version="1.0" standalone="no"?>
<!DOCTYPE svg PUBLIC "-//W3C//DTD SVG 20010904//EN"
 "http://www.w3.org/TR/2001/REC-SVG-20010904/DTD/svg10.dtd">
<svg version="1.0" xmlns="http://www.w3.org/2000/svg"
 width="1024.000000pt" height="1024.000000pt" viewBox="0 0 1024.000000 1024.000000"
 preserveAspectRatio="xMidYMid meet">

<g transform="translate(0.000000,1024.000000) scale(0.100000,-0.100000)"
fill="#000000" stroke="none">
<path d="M5110 9254 c-718 -85 -1455 -486 -1998 -1087 -569 -630 -972 -1391
-972 -1836 0 -381 230 -865 584 -1230 346 -356 768 -594 1209 -681 l57 -11
-19 -28 c-33 -46 -45 -109 -32 -159 15 -55 62 -108 109 -123 20 -6 41 -15 45
-19 5 -4 -10 -28 -31 -53 -307 -354 -664 -1042 -801 -1541 -55 -201 -73 -311
-70 -426 2 -76 -1 -102 -15 -129 -26 -49 -31 -134 -12 -206 8 -32 13 -61 10
-64 -18 -19 -338 110 -473 191 -215 128 -491 341 -692 535 -70 67 -90 81 -108
76 -34 -9 -54 -64 -46 -127 25 -183 158 -408 365 -617 69 -70 154 -157 190
-194 127 -131 268 -213 490 -287 116 -38 135 -41 261 -46 152 -5 242 6 331 42
l56 23 74 -72 73 -71 -50 -39 c-86 -65 -145 -159 -145 -230 0 -70 41 -118 135
-160 186 -82 964 -166 1395 -152 359 13 511 54 550 148 12 29 15 30 54 25 23
-4 178 -9 346 -12 252 -5 326 -3 425 11 137 18 273 62 325 103 19 16 40 31 47
35 6 4 61 3 121 -3 161 -15 475 11 617 51 21 6 54 26 73 45 34 34 35 35 30
107 -13 175 -114 310 -272 364 -37 12 -85 17 -175 18 l-123 0 -35 40 c-19 22
-46 62 -60 89 -31 60 -68 207 -78 302 l-7 71 79 12 c94 15 157 41 173 72 21
37 7 158 -24 222 l-27 55 18 74 c27 111 24 456 -5 636 -50 304 -203 884 -294
1109 -17 41 -28 75 -27 77 2 1 29 15 59 31 128 65 225 145 302 248 73 99 113
183 144 305 23 86 25 113 22 245 l-3 148 25 5 c241 51 464 126 640 214 436
219 664 569 662 1015 -1 149 -23 243 -89 375 -71 141 -152 218 -314 299 -82
40 -160 70 -229 88 -58 14 -106 27 -108 28 -1 1 12 44 30 96 33 94 33 95 32
279 0 154 -4 198 -21 265 -46 176 -81 237 -157 278 -37 20 -57 22 -186 23
l-145 1 -103 41 c-195 79 -323 152 -494 281 -82 61 -89 69 -104 121 -77 269
-130 383 -209 448 -112 91 -280 148 -615 207 -265 46 -555 57 -790 29z m515
-53 c39 -3 -54 -6 -205 -6 -151 0 -248 3 -215 6 81 8 334 8 420 0z m-497 -18
c-10 -2 -26 -2 -35 0 -10 3 -2 5 17 5 19 0 27 -2 18 -5z m630 0 c-10 -2 -28
-2 -40 0 -13 2 -5 4 17 4 22 1 32 -1 23 -4z m-767 -19 c-46 -8 -86 -12 -88
-10 -6 6 95 24 137 24 19 0 -3 -6 -49 -14z m832 9 c-7 -2 -21 -2 -30 0 -10 3
-4 5 12 5 17 0 24 -2 18 -5z m60 -10 c-7 -2 -21 -2 -30 0 -10 3 -4 5 12 5 17
0 24 -2 18 -5z m58 -19 c-19 -8 -36 -12 -39 -9 -3 3 1 5 9 5 11 0 11 2 -1 10
-11 7 -4 10 25 9 l40 0 -34 -15z m-1058 -1 c-7 -2 -19 -2 -25 0 -7 3 -2 5 12
5 14 0 19 -2 13 -5z m-88 -19 c-27 -7 -54 -13 -60 -13 -17 2 69 27 90 27 11 0
-2 -6 -30 -14z m1262 0 c-3 -3 -12 -4 -19 -1 -8 3 -5 6 6 6 11 1 17 -2 13 -5z
m-1352 -24 c-11 -5 -27 -9 -35 -9 -9 0 -8 4 5 9 11 5 27 9 35 9 9 0 8 -4 -5
-9z m1500 0 c13 -5 14 -9 5 -9 -8 0 -24 4 -35 9 -13 5 -14 9 -5 9 8 0 24 -4
35 -9z m-1604 -31 c-30 -10 -56 -17 -58 -15 -5 5 77 34 97 34 8 1 -9 -8 -39
-19z m1699 1 c18 -12 2 -12 -25 0 -13 6 -15 9 -5 9 8 0 22 -4 30 -9z m80 -35
c17 -9 30 -18 30 -21 0 -4 -59 23 -69 32 -10 9 13 3 39 -11z m-1890 -4 c-8 -5
-26 -11 -40 -15 -21 -5 -20 -3 5 9 32 15 60 20 35 6z m-100 -38 c-19 -9 -99
-47 -177 -84 -79 -37 -143 -66 -143 -64 0 12 321 164 345 164 6 0 -6 -7 -25
-16z m2070 -9 c0 -2 -9 0 -20 6 -11 6 -20 13 -20 16 0 2 9 0 20 -6 11 -6 20
-13 20 -16z m46 -36 l29 -33 -32 29 c-31 28 -38 36 -30 36 2 0 16 -15 33 -32z
m-2451 -116 c-17 -15 -105 -63 -105 -58 0 3 24 19 53 36 52 30 69 37 52 22z
m-120 -70 c-20 -18 -215 -141 -215 -136 0 5 211 144 219 144 3 0 1 -4 -4 -8z
m2227 -126 c36 -8 81 -22 100 -31 101 -51 263 -168 373 -270 40 -37 44 -44 20
-32 -50 25 -157 57 -187 57 -16 0 -37 -4 -47 -10 -26 -13 -44 -61 -33 -89 l8
-22 14 26 c17 31 46 39 112 32 105 -13 243 -97 388 -237 l85 -82 -110 -37
c-60 -21 -121 -43 -134 -51 -20 -10 -34 -10 -80 1 -31 8 -99 14 -151 14 -81
-1 -109 -6 -190 -33 -171 -59 -541 -252 -841 -439 -104 -65 -139 -100 -139
-141 0 -11 -8 -23 -17 -27 -84 -32 -343 -125 -351 -125 -5 0 -12 8 -15 18 -26
82 -98 341 -103 367 -5 29 5 47 105 186 148 206 284 375 300 371 7 -1 10 2 6
8 -8 13 168 212 289 327 108 102 194 168 255 196 82 36 230 46 343 23z m-2457
-26 c-3 -5 -20 -19 -38 -30 -32 -22 -32 -22 3 9 37 32 45 37 35 21z m-75 -53
c0 -2 -10 -12 -22 -23 l-23 -19 19 23 c18 21 26 27 26 19z m-75 -63 c-16 -14
-59 -51 -95 -82 -36 -31 -56 -46 -45 -33 22 26 157 141 165 141 3 -1 -8 -12
-25 -26z m3330 -154 c10 -11 16 -20 13 -20 -3 0 -13 9 -23 20 -10 11 -16 20
-13 20 3 0 13 -9 23 -20z m-3505 7 c0 -1 -42 -43 -92 -92 l-93 -90 90 93 c83
85 95 97 95 89z m3650 -103 c0 -2 -9 0 -20 6 -11 6 -20 13 -20 16 0 2 9 0 20
-6 11 -6 20 -13 20 -16z m35 -14 c3 -6 -1 -7 -9 -4 -18 7 -21 14 -7 14 6 0 13
-4 16 -10z m155 -71 c39 -18 69 -34 67 -36 -2 -2 -37 12 -78 31 -41 19 -71 35
-67 35 4 1 39 -13 78 -30z m-4030 -12 c0 -1 -24 -25 -52 -52 l-53 -50 50 53
c46 48 55 57 55 49z m4160 -47 c13 -8 13 -10 -2 -10 -9 0 -20 5 -23 10 -8 13
5 13 25 0z m390 -39 c55 -29 92 -96 127 -234 23 -89 27 -123 27 -262 1 -132
-2 -170 -18 -215 -32 -94 -64 -150 -86 -150 -26 0 -25 6 10 82 43 91 53 161
47 318 -8 206 -51 336 -126 383 -48 29 -181 36 -271 13 -93 -23 -190 -74 -217
-115 -67 -100 33 -421 174 -558 24 -24 40 -43 36 -43 -23 0 -115 65 -148 102
-71 83 -172 333 -182 453 l-5 60 46 43 c55 50 145 94 242 116 38 8 78 18 89
20 40 10 230 -1 255 -13z m-4650 -24 c0 -2 -15 -16 -32 -33 l-33 -29 29 33
c28 30 36 37 36 29z m-70 -80 c0 -2 -10 -12 -22 -23 l-23 -19 19 23 c18 21 26
27 26 19z m4487 -128 l-6 -131 22 39 c12 22 35 62 51 91 16 28 33 49 39 45 10
-6 3 -157 -9 -201 l-7 -24 42 21 c37 19 42 20 48 6 20 -52 -75 -300 -137 -360
-28 -27 -31 -28 -47 -12 -15 15 -15 23 1 117 10 56 16 103 14 106 -3 2 -33
-21 -67 -52 -34 -31 -64 -55 -66 -53 -16 17 -45 109 -45 144 0 74 29 173 77
263 93 176 98 177 90 1z m-431 48 c1 -28 6 -87 11 -131 8 -67 7 -76 -4 -60 -8
10 -23 45 -35 77 -12 33 -27 61 -34 64 -15 6 -115 -23 -139 -41 -18 -13 -17
-19 9 -177 50 -291 46 -514 -13 -684 -91 -267 -294 -445 -570 -501 -197 -39
-354 17 -521 185 -166 168 -373 531 -375 657 0 63 8 73 114 142 232 150 641
359 816 418 131 44 241 50 338 19 46 -14 62 -16 80 -6 49 26 254 91 287 91
l35 0 1 -53z m-4096 30 c0 -2 -10 -12 -22 -23 l-23 -19 19 23 c18 21 26 27 26
19z m-50 -61 c0 -2 -8 -10 -17 -17 -16 -13 -17 -12 -4 4 13 16 21 21 21 13z
m-30 -40 c0 -2 -8 -10 -17 -17 -16 -13 -17 -12 -4 4 13 16 21 21 21 13z m-30
-40 c0 -2 -8 -10 -17 -17 -16 -13 -17 -12 -4 4 13 16 21 21 21 13z m-100 -136
c-12 -16 -24 -30 -26 -30 -3 0 4 14 16 30 12 17 24 30 26 30 3 0 -4 -13 -16
-30z m4300 -49 c22 -12 66 -61 120 -132 147 -197 224 -235 597 -298 532 -91
773 -327 773 -758 0 -345 -178 -675 -466 -865 -86 -56 -283 -156 -379 -191
-579 -213 -1421 -244 -2100 -76 -99 25 -243 66 -252 74 -2 0 7 48 18 106 14
68 23 155 25 249 l3 145 -44 150 c-24 83 -90 285 -145 450 -55 165 -100 302
-100 306 0 3 6 6 13 6 18 0 168 55 164 60 -2 2 -33 -6 -68 -17 -80 -25 -94
-25 -49 0 40 22 37 25 -11 9 -19 -6 -40 -19 -46 -27 -12 -14 -13 -14 -13 1 0
21 39 38 205 87 189 57 181 56 188 28 4 -13 39 -73 78 -133 96 -145 245 -296
345 -348 180 -93 381 -89 582 12 44 22 83 45 87 51 3 5 11 10 16 10 6 0 7 -5
3 -12 -4 -7 -3 -8 5 -4 6 4 9 11 6 15 -2 5 5 17 18 27 21 19 21 19 8 -1 -8
-11 13 9 47 45 120 126 200 271 237 430 26 110 31 337 11 485 -9 65 -16 123
-16 127 0 16 105 7 140 -11z m-2183 -311 c36 -107 118 -344 183 -527 128 -358
240 -700 271 -828 34 -143 22 -343 -32 -515 -11 -36 -27 -76 -36 -89 -8 -13
-10 -20 -4 -17 17 11 14 4 -29 -83 -46 -90 -137 -195 -233 -267 -383 -288
-896 -199 -1162 202 -111 167 -167 356 -168 569 -1 266 3 274 438 835 74 96
210 279 300 405 294 410 400 548 403 528 2 -10 33 -106 69 -213z m-2267 130
c-6 -11 -13 -20 -16 -20 -2 0 0 9 6 20 6 11 13 20 16 20 2 0 0 -9 -6 -20z
m-70 -120 c-6 -11 -13 -20 -16 -20 -2 0 0 9 6 20 6 11 13 20 16 20 2 0 0 -9
-6 -20z m2797 -76 c-3 -3 -12 -4 -19 -1 -8 3 -5 6 6 6 11 1 17 -2 13 -5z
m-3100 -626 c-3 -8 -6 -5 -6 6 -1 11 2 17 5 13 3 -3 4 -12 1 -19z m-10 -50
c-3 -7 -5 -2 -5 12 0 14 2 19 5 13 2 -7 2 -19 0 -25z m-10 -55 c-3 -10 -5 -4
-5 12 0 17 2 24 5 18 2 -7 2 -21 0 -30z m-10 -185 c-2 -29 -3 -6 -3 52 0 58 1
81 3 53 2 -29 2 -77 0 -105z m10 -125 c-3 -10 -5 -4 -5 12 0 17 2 24 5 18 2
-7 2 -21 0 -30z m20 -105 c-3 -8 -6 -5 -6 6 -1 11 2 17 5 13 3 -3 4 -12 1 -19z
m83 -233 c0 -5 -5 -3 -10 5 -5 8 -10 20 -10 25 0 6 5 3 10 -5 5 -8 10 -19 10
-25z m39 -90 c0 -5 -6 1 -14 15 -8 14 -14 30 -14 35 0 6 6 -1 14 -15 8 -14 14
-29 14 -35z m81 -155 c6 -11 8 -20 6 -20 -3 0 -10 9 -16 20 -6 11 -8 20 -6 20
3 0 10 -9 16 -20z m30 -50 c6 -11 8 -20 6 -20 -3 0 -10 9 -16 20 -6 11 -8 20
-6 20 3 0 10 -9 16 -20z m100 -150 c12 -16 19 -30 16 -30 -2 0 -14 14 -26 30
-12 17 -19 30 -16 30 2 0 14 -13 26 -30z m41 -57 c13 -16 12 -17 -3 -4 -17 13
-22 21 -14 21 2 0 10 -8 17 -17z m34 -43 c10 -11 16 -20 13 -20 -3 0 -13 9
-23 20 -10 11 -16 20 -13 20 3 0 13 -9 23 -20z m45 -55 c13 -14 21 -25 18 -25
-2 0 -15 11 -28 25 -13 14 -21 25 -18 25 2 0 15 -11 28 -25z m2945 -45 c77
-17 210 -42 295 -54 l154 -23 -2 -84 c-5 -155 47 -292 170 -443 58 -72 160
-224 164 -246 2 -8 -9 -25 -25 -37 l-28 -22 -149 125 c-179 150 -569 454 -749
584 -145 104 -175 129 -175 144 0 5 7 1 15 -10 13 -16 16 -17 26 -4 8 11 12
12 16 2 2 -6 9 -9 15 -6 6 4 5 9 -3 15 -17 10 25 47 63 55 15 4 25 11 22 16
-4 6 6 8 27 4 19 -3 5 4 -31 15 -88 28 -98 41 -13 18 37 -10 131 -32 208 -49z
m-2880 30 c10 -11 16 -20 13 -20 -3 0 -13 9 -23 20 -10 11 -16 20 -13 20 3 0
13 -9 23 -20z m2608 -25 c-3 -9 -8 -14 -10 -11 -3 3 -2 9 2 15 9 16 15 13 8
-4z m-52 -32 c-12 -20 -14 -14 -5 12 4 9 9 14 11 11 3 -2 0 -13 -6 -23z
m-2361 -191 c0 -6 -150 131 -190 174 -19 21 16 -9 78 -66 61 -57 112 -105 112
-108z m-90 133 c19 -19 32 -35 29 -35 -3 0 -20 16 -39 35 -19 19 -32 35 -29
35 3 0 20 -16 39 -35z m115 -105 c10 -11 16 -20 13 -20 -3 0 -13 9 -23 20 -10
11 -16 20 -13 20 3 0 13 -9 23 -20z m105 -126 c0 -3 -27 16 -60 41 -33 25 -60
48 -60 51 0 3 27 -16 60 -41 33 -25 60 -48 60 -51z m31 -21 c13 -16 12 -17 -3
-4 -10 7 -18 15 -18 17 0 8 8 3 21 -13z m70 -50 c13 -16 12 -17 -3 -4 -17 13
-22 21 -14 21 2 0 10 -8 17 -17z m3133 -147 c50 -69 85 -140 86 -170 0 -29
-22 -4 -25 28 -5 38 -78 156 -90 144 -3 -3 10 -25 28 -49 34 -44 69 -103 50
-84 -56 56 -173 247 -173 281 0 9 78 -84 124 -150z m-3029 81 c16 -15 -48 20
-70 38 -11 9 -2 7 20 -6 22 -12 45 -26 50 -32z m75 -43 c0 -2 -9 0 -20 6 -11
6 -20 13 -20 16 0 2 9 0 20 -6 11 -6 20 -13 20 -16z m3700 -198 c0 -2 -8 -10
-17 -17 -16 -13 -17 -12 -4 4 13 16 21 21 21 13z m-3083 -12 c-3 -3 -12 -4
-19 -1 -8 3 -5 6 6 6 11 1 17 -2 13 -5z m2267 -300 c9 -8 16 -18 16 -22 0 -4
7 -43 15 -87 65 -356 22 -879 -111 -1336 -28 -99 -142 -412 -160 -441 -3 -5
-12 0 -20 11 -13 18 -9 34 34 153 155 420 232 843 232 1265 0 157 -7 239 -36
431 -7 45 3 54 30 26z m370 -96 c57 -200 99 -409 117 -582 16 -164 6 -487 -19
-626 -80 -431 -226 -800 -418 -1056 -59 -78 -208 -234 -224 -234 -6 0 -13 7
-16 15 -4 10 12 31 45 61 205 184 381 498 485 865 137 484 139 908 8 1437 -34
136 -37 154 -23 162 26 15 29 12 45 -42z m245 -388 c0 -9 -4 -8 -9 5 -5 11 -9
27 -9 35 0 9 4 8 9 -5 5 -11 9 -27 9 -35z m8 -42 c-3 -8 -6 -5 -6 6 -1 11 2
17 5 13 3 -3 4 -12 1 -19z m-269 -60 c32 -22 41 -34 44 -65 3 -21 4 -39 3 -41
-2 -2 -24 13 -49 32 -77 59 -159 61 -228 6 l-38 -31 0 45 c0 38 4 48 26 63 58
38 178 33 242 -9z m342 -198 c22 -85 54 -236 72 -335 30 -169 32 -193 31 -400
-1 -121 -6 -236 -11 -255 -8 -27 -9 -13 -4 55 12 155 6 383 -12 490 -38 220
-79 417 -111 543 -19 72 -35 135 -34 140 2 13 29 -81 69 -238z m-392 94 c51
-35 66 -111 34 -174 -17 -34 -16 -36 6 -82 32 -62 24 -118 -23 -165 -58 -58
-141 -37 -177 43 -22 52 -18 96 15 131 19 21 19 24 5 40 -9 10 -22 37 -29 61
-15 53 0 112 38 141 31 25 99 28 131 5z m-358 -214 c-25 -201 -28 -213 -40
-185 -22 47 -20 227 4 295 17 50 54 116 61 108 1 -2 -10 -100 -25 -218z m717
128 c-3 -8 -6 -5 -6 6 -1 11 2 17 5 13 3 -3 4 -12 1 -19z m20 -90 c-3 -7 -5
-2 -5 12 0 14 2 19 5 13 2 -7 2 -19 0 -25z m21 -88 c0 -22 -1 -22 -8 5 -4 17
-8 39 -8 50 0 16 2 15 8 -5 4 -14 8 -36 8 -50z m9 -77 c-3 -10 -5 -4 -5 12 0
17 2 24 5 18 2 -7 2 -21 0 -30z m28 -129 c8 -54 17 -187 19 -294 l4 -195 -8
170 c-7 152 -18 271 -36 390 -4 22 -4 38 0 34 3 -3 12 -50 21 -105z m-349 -39
c-9 -13 -37 -37 -63 -52 -42 -24 -58 -28 -128 -28 -69 0 -86 4 -127 28 -58 34
-61 38 -53 81 l7 34 43 -30 c31 -22 60 -32 101 -37 79 -9 129 3 183 44 l46 34
3 -25 c2 -14 -4 -36 -12 -49z m371 -487 c-3 -8 -6 -5 -6 6 -1 11 2 17 5 13 3
-3 4 -12 1 -19z m-5008 -161 c88 -84 267 -237 376 -319 246 -186 561 -353 752
-398 28 -6 86 -33 128 -60 103 -65 107 -72 10 -21 -69 37 -77 39 -56 17 14
-14 29 -26 35 -26 6 0 30 -23 54 -50 24 -28 47 -48 51 -45 14 8 83 -105 76
-123 -5 -12 -9 -13 -12 -4 -4 10 -8 10 -20 0 -12 -10 -14 -9 -11 7 2 13 -3 20
-17 22 -11 1 -14 0 -6 -3 11 -5 11 -8 0 -14 -7 -5 -14 -16 -15 -25 -2 -14 5
-15 44 -9 85 12 106 26 80 52 -7 7 -10 12 -7 12 3 0 14 -9 23 -19 17 -19 17
-20 -11 -34 -101 -52 -322 -65 -480 -28 -94 22 -133 41 -84 41 28 0 225 71
233 84 10 15 10 90 -1 118 -4 13 -11 36 -15 52 -7 27 -6 28 23 24 17 -3 28 -2
25 1 -5 5 -84 31 -84 27 0 0 9 -23 19 -51 10 -27 22 -75 26 -106 l7 -55 -89
-27 c-198 -60 -231 -61 -341 -7 -45 21 -109 58 -143 80 -68 47 -195 166 -164
154 78 -28 133 -36 213 -29 98 8 102 16 8 16 -131 0 -272 67 -399 188 -138
132 -241 287 -301 455 -31 85 -45 186 -26 186 7 0 52 -37 99 -83z m5061 -165
c12 -44 13 -112 1 -130 -4 -7 -6 10 -3 40 2 32 -2 70 -11 95 -8 24 -11 40 -6
37 4 -2 13 -21 19 -42z m-2320 -13 c54 -24 75 -43 106 -90 86 -137 74 -383
-31 -594 -91 -182 -197 -282 -362 -341 -145 -52 -159 -69 -28 -34 153 41 282
59 475 67 175 6 263 -2 362 -35 147 -49 269 -213 271 -365 0 -65 -8 -78 -64
-101 l-37 -15 -4 62 c-4 74 -55 188 -112 253 -37 43 -143 120 -152 111 -3 -3
14 -19 39 -35 61 -42 104 -95 138 -166 39 -82 55 -157 43 -204 -9 -35 -12 -38
-66 -48 -32 -7 -92 -15 -135 -19 -70 -6 -76 -6 -64 9 21 25 9 115 -24 182 -32
66 -122 164 -150 164 -14 0 -8 -9 23 -36 27 -23 54 -61 76 -107 41 -87 51
-137 36 -181 l-11 -33 -85 -7 c-95 -8 -234 -3 -524 20 -463 36 -795 98 -878
162 -53 41 -34 146 42 230 47 52 125 102 159 102 41 0 32 15 -19 35 -65 24
-163 125 -252 258 -40 59 -69 107 -65 106 4 0 22 -21 39 -47 31 -48 49 -56 49
-24 1 9 5 23 9 31 7 10 5 12 -5 6 -8 -4 1 6 19 24 33 31 49 40 37 21 -4 -6 -3
-10 2 -9 4 1 17 1 28 0 16 -1 7 -13 -40 -56 -33 -29 -57 -56 -55 -59 8 -7 205
169 225 201 12 20 3 14 -32 -19 -47 -46 -72 -62 -57 -35 4 6 -2 4 -13 -5 -28
-26 -51 -24 -28 2 10 11 22 20 27 20 4 0 22 13 39 30 18 16 35 27 39 25 4 -3
10 2 14 10 3 9 -19 0 -57 -21 -74 -42 -152 -80 -187 -89 -14 -3 20 17 75 45
106 54 336 204 525 342 223 163 340 234 434 264 63 20 154 17 206 -7z m2074
-261 c3 -18 8 -61 11 -95 17 -177 111 -371 198 -408 19 -8 61 -10 121 -7 230
12 373 -94 409 -302 15 -89 -5 -119 -98 -142 -23 -6 -24 -4 -18 28 13 82 -38
221 -102 276 -50 44 -65 40 -23 -6 52 -58 73 -121 73 -222 l0 -85 -65 -11
c-36 -7 -81 -12 -100 -13 l-35 -1 -1 68 c-2 86 -35 173 -86 226 l-39 41 38
-73 c33 -64 37 -83 41 -163 4 -70 1 -93 -9 -100 -16 -10 -174 -12 -271 -3 -65
7 -66 7 -53 28 22 32 28 97 15 146 -14 56 -60 160 -70 160 -4 0 2 -26 13 -57
21 -62 27 -161 13 -228 l-9 -40 -13 62 c-26 126 -112 241 -220 296 -60 30
-192 73 -257 82 -40 6 -52 13 -75 47 l-27 39 62 63 c53 54 64 73 83 134 15 51
19 85 15 119 -6 44 -3 52 34 103 26 37 49 57 68 61 15 4 105 7 200 8 l172 1 5
-32z m-819 -200 c8 -114 39 -184 119 -274 l55 -61 -56 -7 c-62 -7 -202 -51
-218 -68 -7 -8 -3 -9 15 -4 66 18 145 26 251 26 252 0 438 -88 514 -244 14
-29 29 -78 32 -108 5 -51 3 -57 -27 -91 -18 -20 -36 -34 -41 -31 -5 3 -9 0 -9
-5 0 -6 -3 -11 -7 -11 -5 0 -7 30 -5 68 5 91 -24 168 -87 233 -26 27 -53 49
-60 49 -7 0 1 -11 18 -25 68 -58 106 -193 82 -292 -11 -46 -16 -51 -49 -61
-20 -6 -59 -14 -86 -18 -47 -6 -49 -6 -43 15 3 11 1 52 -4 91 -12 99 -67 202
-123 232 -20 11 -21 12 27 -59 20 -29 39 -75 47 -111 13 -63 10 -156 -6 -172
-5 -5 -72 -12 -148 -16 l-139 -7 18 27 c15 22 16 39 11 99 -9 84 -35 149 -78
195 -46 46 -52 40 -17 -17 37 -59 48 -105 49 -191 0 -101 -10 -110 -123 -110
-93 1 -296 22 -314 33 -6 4 -13 25 -16 47 -15 115 -126 261 -243 322 l-64 33
0 61 c0 77 -22 205 -53 309 -13 44 -26 87 -28 95 -3 11 15 17 86 27 50 7 158
22 240 33 83 12 213 34 290 50 201 40 182 47 190 -62z m284 0 c-4 -29 -12 -66
-18 -81 -11 -29 -107 -127 -123 -127 -14 0 -47 43 -47 60 0 8 24 33 52 55 28
22 70 64 92 92 22 28 43 52 46 52 3 1 2 -23 -2 -51z m-1172 -54 c-3 -3 -12 -4
-19 -1 -8 3 -5 6 6 6 11 1 17 -2 13 -5z m72 -171 c22 -88 35 -170 26 -161 -4
3 -15 46 -25 94 -11 49 -26 111 -35 138 -8 27 -15 54 -14 60 1 21 29 -53 48
-131z m-74 117 c-11 -5 -42 -10 -70 -11 l-50 -2 40 -6 c22 -4 50 -6 61 -6 16
2 20 -3 17 -16 -5 -16 -7 -17 -27 -4 -27 18 -39 10 -25 -17 6 -11 8 -22 5 -26
-3 -3 -6 0 -6 7 0 7 -4 9 -10 6 -5 -3 -10 -2 -10 3 0 5 -9 12 -20 15 -18 5
-26 -7 -21 -35 0 -5 -4 -7 -9 -5 -6 1 -16 -9 -23 -23 -7 -14 -22 -25 -32 -25
-11 -1 -19 -7 -17 -14 1 -7 -2 -10 -7 -6 -7 3 -3 25 10 57 11 28 18 56 15 62
-2 6 -5 4 -5 -4 -1 -9 -17 -48 -36 -89 -27 -56 -33 -77 -25 -91 6 -10 10 -30
10 -44 0 -24 -3 -26 -42 -23 -38 2 -43 0 -41 -18 1 -11 0 -14 -3 -7 -8 17 -24
5 -18 -13 4 -8 10 -12 15 -9 5 3 9 1 9 -5 0 -5 -12 -11 -27 -13 -16 -2 55 -2
157 0 127 3 189 8 198 16 11 10 10 13 -2 13 -8 0 -13 -4 -10 -9 8 -12 -51 -10
-81 4 -27 12 -31 23 -13 34 6 4 8 3 4 -4 -3 -6 -2 -13 4 -17 5 -3 10 -1 10 5
0 7 6 8 19 0 27 -14 36 -13 23 3 -8 10 -6 13 9 14 11 1 17 -2 14 -8 -4 -5 -3
-9 2 -10 4 0 17 -2 28 -5 13 -2 28 6 43 24 l23 27 -12 -26 c-26 -60 -46 -65
-267 -73 -111 -4 -208 -9 -216 -12 -7 -3 7 16 31 43 25 26 64 75 86 108 42 61
107 198 107 225 0 12 19 15 103 17 66 1 95 -1 82 -7z m-80 -89 c3 -5 1 -12 -5
-16 -19 -12 -10 -26 11 -20 15 5 19 4 14 -5 -4 -7 -17 -9 -32 -5 -18 4 -23 2
-17 -6 4 -8 3 -9 -4 -5 -13 8 -5 36 10 36 6 0 8 7 4 15 -6 16 9 21 19 6z m85
-47 c0 -2 -9 -4 -21 -4 -11 0 -18 4 -14 10 5 8 35 3 35 -6z m-224 -49 c-3 -9
0 -15 10 -15 9 0 12 5 8 12 -4 7 -3 8 5 4 6 -4 18 -3 25 3 18 15 17 -11 -1
-27 -7 -7 -13 -8 -13 -3 0 6 -7 8 -15 5 -8 -4 -13 -9 -10 -13 2 -4 -2 -8 -9
-8 -11 0 -13 14 -7 50 0 4 4 7 7 7 3 0 4 -7 0 -15z m-1436 -26 c15 -28 5 -23
-15 7 -9 15 -12 23 -6 20 6 -4 16 -16 21 -27z m1480 -49 c6 -11 8 -20 6 -20
-3 0 -10 9 -16 20 -6 11 -8 20 -6 20 3 0 10 -9 16 -20z m23 -57 c-17 -14 -17
-14 4 -10 13 3 25 2 28 -3 6 -10 -41 -19 -55 -10 -18 11 6 51 25 43 13 -5 13
-7 -2 -20z"/>
<path d="M6213 8543 c20 -2 54 -2 75 0 20 2 3 4 -38 4 -41 0 -58 -2 -37 -4z"/>
<path d="M6045 8525 c-66 -17 -38 -17 50 0 45 8 57 13 35 13 -19 0 -57 -6 -85
-13z"/>
<path d="M5902 8489 c-35 -11 -62 -22 -60 -24 2 -2 37 7 78 20 41 13 68 23 60
24 -8 0 -44 -9 -78 -20z"/>
<path d="M5752 8430 c-156 -74 -304 -211 -487 -450 -144 -190 -240 -367 -304
-559 -46 -141 -36 -134 14 9 98 277 258 529 484 764 109 112 184 170 291 224
96 48 98 57 2 12z"/>
<path d="M5768 8285 c-115 -60 -198 -242 -198 -435 0 -47 5 -92 10 -100 7 -11
10 -4 10 26 0 107 55 279 115 357 47 61 121 107 173 107 38 0 49 -6 117 -71
41 -39 75 -69 75 -65 0 17 -43 96 -71 129 -63 77 -147 95 -231 52z"/>
<path d="M6399 7780 c-97 -28 -203 -72 -331 -136 -195 -97 -482 -271 -534
-323 -24 -24 -26 -31 -21 -86 4 -49 20 -89 81 -210 97 -194 162 -292 256 -387
130 -130 263 -178 438 -157 162 20 270 76 389 202 110 116 168 245 193 432 27
202 -35 474 -136 594 -67 80 -206 109 -335 71z m-69 -85 c0 -2 -11 -34 -25
-70 -31 -83 -98 -306 -93 -311 2 -2 58 51 123 116 66 66 123 120 127 120 23 0
-2 -170 -42 -284 -11 -33 -20 -65 -20 -73 0 -7 28 17 63 54 35 38 82 88 106
113 l43 45 -6 -55 c-7 -66 -55 -223 -97 -317 -40 -91 -142 -242 -218 -325 -55
-59 -178 -154 -188 -145 -4 5 9 43 82 242 75 199 82 225 65 225 -12 0 -82 -60
-244 -207 -38 -35 -72 -63 -77 -63 -30 0 12 207 76 372 19 49 35 91 35 92 0 2
-19 2 -42 2 -40 -1 -43 1 -40 24 1 14 16 54 33 90 35 75 161 280 187 303 31
28 152 70 152 52z"/>
<path d="M7051 7566 c2 -2 15 -9 29 -15 24 -11 24 -11 6 3 -16 13 -49 24 -35
12z"/>
<path d="M8035 6837 c-73 -19 -126 -50 -168 -96 -63 -70 -48 -148 44 -224 89
-72 257 -147 331 -147 33 0 33 1 18 -151 -24 -243 -98 -492 -181 -611 -22 -30
-24 -43 -7 -32 7 5 8 3 4 -5 -5 -7 -11 -10 -14 -7 -8 9 -62 -45 -62 -61 0 -24
16 -13 77 50 62 65 101 135 146 267 38 112 77 316 84 445 l6 113 42 36 c60 50
85 106 85 192 -1 113 -38 172 -135 215 -61 27 -196 35 -270 16z m259 -68 c55
-43 23 -91 -71 -104 -44 -6 -54 -4 -72 14 -25 25 -26 39 -5 69 31 45 104 55
148 21z m-154 -3 c0 -2 -18 -13 -40 -24 -29 -14 -37 -16 -28 -5 16 19 68 42
68 29z"/>
<path d="M5477 6792 c15 -20 67 -89 115 -153 48 -64 111 -138 141 -165 81 -74
239 -145 317 -143 23 1 23 1 -5 9 -16 4 -47 11 -68 15 -21 3 -35 10 -32 15 3
6 0 7 -8 4 -19 -7 -107 37 -174 87 -48 36 -139 141 -145 169 -2 7 -14 24 -27
39 -13 14 -48 56 -78 94 -59 71 -84 92 -36 29z"/>
<path d="M5318 6813 c7 -3 16 -2 19 1 4 3 -2 6 -13 5 -11 0 -14 -3 -6 -6z"/>
<path d="M5590 6701 c5 -11 15 -23 21 -27 6 -3 3 5 -6 20 -20 30 -30 35 -15 7z"/>
<path d="M5683 6575 c0 -8 4 -12 9 -9 5 3 6 10 3 15 -9 13 -12 11 -12 -6z"/>
<path d="M6554 6418 l-19 -23 23 19 c21 18 27 26 19 26 -2 0 -12 -10 -23 -22z"/>
<path d="M6218 6313 c7 -3 16 -2 19 1 4 3 -2 6 -13 5 -11 0 -14 -3 -6 -6z"/>
<path d="M5427 5760 c3 -30 8 -85 12 -122 4 -37 10 -70 14 -74 9 -10 -2 104
-19 186 l-13 65 6 -55z"/>
<path d="M6369 5755 c-27 -15 -68 -80 -56 -91 3 -4 13 -1 22 6 9 7 17 11 19 9
1 -2 12 -20 25 -41 33 -55 143 -153 228 -203 179 -105 443 -161 649 -139 l79
8 -130 7 c-268 13 -487 87 -664 223 -104 80 -177 186 -148 215 17 17 4 20 -24
6z"/>
<path d="M5423 5600 c0 -25 2 -35 4 -22 2 12 2 32 0 45 -2 12 -4 2 -4 -23z"/>
<path d="M5397 5455 c-11 -49 -20 -96 -23 -102 -2 -7 1 -13 5 -13 19 0 42 86
39 145 l-3 60 -18 -90z"/>
<path d="M4699 7327 c-58 -78 -182 -248 -275 -377 -189 -264 -229 -316 -437
-582 -277 -356 -296 -397 -297 -645 0 -186 30 -313 116 -483 50 -100 75 -135
152 -214 100 -102 225 -175 367 -214 102 -28 275 -29 378 -3 222 57 434 223
526 411 24 49 26 58 10 36 -29 -37 -136 -106 -165 -106 -12 0 -31 11 -42 25
l-20 25 -31 -35 c-17 -19 -37 -35 -46 -35 -24 0 -67 25 -94 54 -14 14 -28 26
-31 26 -4 0 -10 -18 -14 -40 -5 -31 -11 -40 -26 -40 -34 0 -86 26 -129 65
l-41 37 0 -31 c0 -23 -5 -31 -18 -31 -42 0 -173 107 -246 200 l-27 35 7 -40
c4 -22 13 -58 20 -80 7 -21 11 -41 9 -43 -2 -2 -25 26 -51 62 -26 36 -49 64
-51 62 -4 -4 12 -83 23 -110 6 -17 5 -17 -23 -3 -79 41 -170 197 -180 308 -7
73 -22 59 -33 -30 l-7 -56 -26 55 c-27 56 -53 192 -41 213 5 9 4 9 -6 0 -7 -6
-18 -35 -25 -65 l-13 -53 -17 40 c-41 93 -28 207 39 350 45 96 105 194 276
450 58 88 196 300 305 470 109 171 222 346 252 390 29 44 53 89 53 100 -1 55
-19 40 -121 -98z m108 91 c-3 -8 -6 -5 -6 6 -1 11 2 17 5 13 3 -3 4 -12 1 -19z"/>
<path d="M5528 5183 c7 -3 16 -2 19 1 4 3 -2 6 -13 5 -11 0 -14 -3 -6 -6z"/>
<path d="M5568 5173 c7 -3 16 -2 19 1 4 3 -2 6 -13 5 -11 0 -14 -3 -6 -6z"/>
<path d="M5668 5153 c7 -3 16 -2 19 1 4 3 -2 6 -13 5 -11 0 -14 -3 -6 -6z"/>
<path d="M5708 5143 c7 -3 16 -2 19 1 4 3 -2 6 -13 5 -11 0 -14 -3 -6 -6z"/>
<path d="M5758 5133 c7 -3 16 -2 19 1 4 3 -2 6 -13 5 -11 0 -14 -3 -6 -6z"/>
<path d="M5555 5023 c15 -15 375 -248 413 -267 54 -27 36 -10 -25 25 -32 17
-116 71 -188 119 -136 90 -217 140 -200 123z"/>
<path d="M5520 5015 c0 -4 9 -18 20 -32 11 -14 20 -22 20 -18 0 4 -9 18 -20
32 -11 14 -20 22 -20 18z"/>
<path d="M6010 4735 c0 -7 161 -87 166 -83 2 2 -35 23 -81 46 -47 23 -85 40
-85 37z"/>
<path d="M6250 4710 c6 -11 13 -20 16 -20 2 0 0 9 -6 20 -6 11 -13 20 -16 20
-2 0 0 -9 6 -20z"/>
<path d="M6482 3408 c-7 -7 -12 -21 -12 -33 0 -22 26 -65 39 -65 13 0 20 48
12 78 -8 30 -22 37 -39 20z"/>
<path d="M6476 3205 c-11 -30 -6 -62 12 -78 18 -16 19 -16 32 8 10 18 11 33 4
53 -11 31 -39 41 -48 17z"/>
<path d="M1970 2174 c0 -17 48 -93 103 -161 57 -72 153 -165 227 -222 55 -42
31 -17 -77 78 -90 79 -163 166 -218 257 -19 32 -35 54 -35 48z"/>
<path d="M2377 1732 c28 -24 127 -85 113 -70 -3 3 -36 27 -75 52 -38 25 -55
33 -38 18z"/>
<path d="M2550 1625 c0 -7 61 -37 66 -33 2 3 -12 12 -31 21 -19 9 -35 15 -35
12z"/>
<path d="M2575 1522 c18 -17 194 -82 278 -103 45 -11 118 -21 162 -23 44 -2
64 -2 45 0 -148 16 -284 52 -440 114 -30 12 -50 17 -45 12z"/>
<path d="M3125 1337 c12 -10 14 -16 7 -21 -7 -4 -12 -2 -12 4 0 7 -7 9 -16 6
-8 -3 -12 -2 -9 4 8 13 3 13 -32 -1 -25 -9 -26 -12 -10 -20 9 -6 17 -15 17
-22 0 -8 -3 -8 -9 2 -5 8 -11 9 -15 3 -8 -13 20 -36 34 -27 5 3 10 1 10 -4 0
-7 35 -11 96 -11 52 0 93 4 90 8 -2 4 11 6 31 4 25 -3 34 -1 29 7 -4 6 -3 11
1 11 5 0 9 8 10 18 1 10 -4 19 -12 19 -7 0 -11 -7 -7 -15 3 -10 1 -13 -6 -8
-6 3 -13 2 -17 -4 -7 -12 -45 -14 -45 -2 0 5 -7 9 -15 9 -8 0 -15 -3 -15 -7 0
-4 -7 -7 -15 -7 -24 0 -18 10 22 36 27 17 34 19 30 7 -4 -9 -2 -16 3 -16 6 0
10 9 10 20 0 25 -5 25 -40 0 -24 -17 -29 -18 -40 -5 -7 8 -16 13 -20 10 -5 -3
-11 -1 -15 5 -3 5 -18 10 -33 10 -24 0 -25 -1 -7 -13z m32 -19 c-3 -8 -6 -5
-6 6 -1 11 2 17 5 13 3 -3 4 -12 1 -19z m98 -48 c3 -5 -1 -10 -10 -10 -9 0
-13 5 -10 10 3 6 8 10 10 10 2 0 7 -4 10 -10z"/>
<path d="M4239 1963 c-13 -16 -12 -17 4 -4 16 13 21 21 13 21 -2 0 -10 -8 -17
-17z"/>
<path d="M4117 1853 c-38 -36 -78 -80 -89 -97 -12 -17 -15 -24 -7 -16 85 87
172 180 168 180 -3 0 -35 -30 -72 -67z"/>
<path d="M3796 1635 c-11 -8 -15 -15 -9 -15 6 0 16 7 23 15 16 19 11 19 -14 0z"/>
<path d="M3915 1540 c-3 -6 1 -7 9 -4 18 7 21 14 7 14 -6 0 -13 -4 -16 -10z"/>
<path d="M3938 1429 l-33 -31 38 27 c20 15 37 29 37 31 0 10 -12 2 -42 -27z"/>
<path d="M3976 1395 c-11 -8 -15 -15 -10 -15 6 0 19 7 30 15 10 8 15 14 9 14
-5 0 -19 -6 -29 -14z"/>
<path d="M3985 1344 c-16 -14 -21 -21 -10 -15 30 14 61 40 50 41 -5 0 -23 -12
-40 -26z"/>
<path d="M4051 1330 c-15 -13 -18 -20 -9 -20 8 0 23 9 33 20 23 26 7 25 -24 0z"/>
<path d="M4105 1290 c-10 -11 -23 -20 -30 -20 -6 0 -12 -7 -12 -15 0 -11 11
-5 34 17 18 17 33 33 33 35 0 7 -8 2 -25 -17z"/>
<path d="M3995 1264 l-30 -26 33 22 c17 12 32 23 32 26 0 7 -4 5 -35 -22z"/>
<path d="M4000 1230 c-9 -6 -10 -10 -3 -10 6 0 15 5 18 10 8 12 4 12 -15 0z"/>
<path d="M4030 1158 c-25 -22 -38 -37 -29 -32 25 14 82 64 78 69 -3 2 -25 -15
-49 -37z"/>
<path d="M3900 1074 c-35 -24 -100 -86 -111 -107 -6 -10 14 6 43 36 29 29 64
61 78 70 14 9 23 16 20 16 -3 1 -17 -6 -30 -15z"/>
<path d="M3923 763 c9 -2 23 -2 30 0 6 3 -1 5 -18 5 -16 0 -22 -2 -12 -5z"/>
<path d="M3988 753 c6 -2 18 -2 25 0 6 3 1 5 -13 5 -14 0 -19 -2 -12 -5z"/>
<path d="M4068 743 c6 -2 18 -2 25 0 6 3 1 5 -13 5 -14 0 -19 -2 -12 -5z"/>
<path d="M4128 733 c6 -2 18 -2 25 0 6 3 1 5 -13 5 -14 0 -19 -2 -12 -5z"/>
<path d="M4193 723 c9 -2 23 -2 30 0 6 3 -1 5 -18 5 -16 0 -22 -2 -12 -5z"/>
<path d="M4253 713 c9 -2 23 -2 30 0 6 3 -1 5 -18 5 -16 0 -22 -2 -12 -5z"/>
<path d="M4313 703 c9 -2 25 -2 35 0 9 3 1 5 -18 5 -19 0 -27 -2 -17 -5z"/>
<path d="M4393 693 c9 -2 23 -2 30 0 6 3 -1 5 -18 5 -16 0 -22 -2 -12 -5z"/>
<path d="M4463 683 c9 -2 25 -2 35 0 9 3 1 5 -18 5 -19 0 -27 -2 -17 -5z"/>
<path d="M4538 673 c7 -3 16 -2 19 1 4 3 -2 6 -13 5 -11 0 -14 -3 -6 -6z"/>
<path d="M4613 663 c9 -2 23 -2 30 0 6 3 -1 5 -18 5 -16 0 -22 -2 -12 -5z"/>
<path d="M4703 653 c9 -2 23 -2 30 0 6 3 -1 5 -18 5 -16 0 -22 -2 -12 -5z"/>
<path d="M4793 643 c9 -2 23 -2 30 0 6 3 -1 5 -18 5 -16 0 -22 -2 -12 -5z"/>
<path d="M5233 643 c9 -2 25 -2 35 0 9 3 1 5 -18 5 -19 0 -27 -2 -17 -5z"/>
<path d="M6546 1791 c-4 -5 3 -7 14 -4 23 6 26 13 6 13 -8 0 -17 -4 -20 -9z"/>
<path d="M6494 1748 c-40 -48 -65 -112 -69 -176 l-4 -57 8 51 c13 78 30 121
67 169 39 52 38 60 -2 13z"/>
<path d="M6412 1495 c0 -11 4 -33 8 -50 7 -27 8 -27 8 -5 0 14 -4 36 -8 50 -6
20 -8 21 -8 5z"/>
<path d="M6431 1401 c-1 -15 46 -101 55 -101 3 0 -4 15 -15 33 -11 18 -25 44
-30 58 -5 13 -10 18 -10 10z"/>
<path d="M6851 1060 c0 -8 4 -22 9 -30 12 -18 12 -2 0 25 -6 13 -9 15 -9 5z"/>
<path d="M5830 1720 c-8 -5 -10 -10 -5 -10 6 0 17 5 25 10 8 5 11 10 5 10 -5
0 -17 -5 -25 -10z"/>
<path d="M5760 1690 c-8 -5 -10 -10 -5 -10 6 0 17 5 25 10 8 5 11 10 5 10 -5
0 -17 -5 -25 -10z"/>
<path d="M5710 1670 c-8 -5 -10 -10 -5 -10 6 0 17 5 25 10 8 5 11 10 5 10 -5
0 -17 -5 -25 -10z"/>
<path d="M5550 1610 c-8 -5 -10 -10 -5 -10 6 0 17 5 25 10 8 5 11 10 5 10 -5
0 -17 -5 -25 -10z"/>
<path d="M5370 1540 c-8 -5 -10 -10 -5 -10 6 0 17 5 25 10 8 5 11 10 5 10 -5
0 -17 -5 -25 -10z"/>
<path d="M5360 1445 c-7 -9 -8 -15 -2 -15 5 0 12 7 16 15 3 8 4 15 2 15 -2 0
-9 -7 -16 -15z"/>
<path d="M5374 1388 l-19 -21 28 18 c28 18 33 25 19 25 -5 0 -17 -10 -28 -22z"/>
<path d="M5385 1350 c-3 -5 -1 -10 4 -10 6 0 11 5 11 10 0 6 -2 10 -4 10 -3 0
-8 -4 -11 -10z"/>
<path d="M5395 1300 c-13 -6 -15 -9 -5 -9 8 0 22 4 30 9 18 12 2 12 -25 0z"/>
<path d="M5404 1255 c-10 -8 -14 -15 -8 -15 5 0 19 7 30 15 10 8 14 15 8 15
-5 0 -19 -7 -30 -15z"/>
<path d="M5476 1088 c37 -35 89 -92 116 -127 26 -35 48 -61 48 -57 0 24 -203
246 -225 246 -3 0 24 -28 61 -62z"/>
<path d="M5697 859 c7 -7 15 -10 18 -7 3 3 -2 9 -12 12 -14 6 -15 5 -6 -5z"/>
<path d="M5858 813 c6 -2 18 -2 25 0 6 3 1 5 -13 5 -14 0 -19 -2 -12 -5z"/>
<path d="M5928 803 c6 -2 18 -2 25 0 6 3 1 5 -13 5 -14 0 -19 -2 -12 -5z"/>
<path d="M6173 803 c9 -2 23 -2 30 0 6 3 -1 5 -18 5 -16 0 -22 -2 -12 -5z"/>
<path d="M6187 1613 c-40 -37 -73 -70 -75 -74 -1 -3 5 -16 15 -28 l18 -21 48
41 c26 22 52 50 59 62 17 32 27 87 17 87 -6 0 -42 -30 -82 -67z"/>
<path d="M4966 1513 c-6 -14 -5 -15 5 -6 7 7 10 15 7 18 -3 3 -9 -2 -12 -12z"/>
<path d="M4832 1330 c-28 -37 -28 -42 2 -30 13 5 27 6 30 3 3 -4 6 3 6 15 0
12 -5 22 -11 22 -5 0 -7 5 -4 10 13 22 -3 8 -23 -20z"/>
<path d="M4755 1240 c-3 -5 -1 -10 4 -10 6 0 11 5 11 10 0 6 -2 10 -4 10 -3 0
-8 -4 -11 -10z"/>
</g>
</svg>
